<svg width="20" height="20" viewBox="0 0 20 20" fill="none" xmlns="http://www.w3.org/2000/svg">
<g clip-path="url(#clip0_1220_190)">
<path d="M10.0001 1.66667C8.48265 1.66667 7.06378 1.96832 5.74348 2.57161C4.42317 3.17491 3.37436 3.98872 2.59705 5.01302C1.81975 6.03733 1.43109 7.1441 1.43109 8.33333C1.43109 9.30556 1.69701 10.2322 2.22886 11.1133C2.7607 11.9944 3.51011 12.7561 4.4771 13.3984L5.4478 14.0495L5.14655 15.2995C4.96803 16.0894 4.70769 16.8359 4.36552 17.5391C5.49615 16.9922 6.51893 16.25 7.43384 15.3125L7.91362 14.8177L8.54959 14.8958C9.06284 14.9653 9.54633 15 10.0001 15C11.5175 15 12.9364 14.6983 14.2567 14.0951C15.577 13.4918 16.6258 12.678 17.4031 11.6536C18.1804 10.6293 18.5691 9.52257 18.5691 8.33333C18.5691 7.1441 18.1804 6.03733 17.4031 5.01302C16.6258 3.98872 15.577 3.17491 14.2567 2.57161C12.9364 1.96832 11.5175 1.66667 10.0001 1.66667ZM19.9972 8.33333C19.9972 9.84375 19.5509 11.2391 18.6583 12.5195C17.7657 13.7999 16.5533 14.8112 15.021 15.5534C13.4887 16.2956 11.815 16.6667 10.0001 16.6667C9.47939 16.6667 8.94011 16.6319 8.38223 16.5625C6.90944 18.0816 5.19862 19.1319 3.24977 19.7135C2.88529 19.8351 2.4613 19.9306 1.97781 20H1.92202C1.81045 20 1.71003 19.9544 1.62077 19.8633C1.53151 19.7721 1.472 19.6528 1.44225 19.5052V19.4922C1.41994 19.4575 1.41808 19.4054 1.43667 19.3359C1.45527 19.2665 1.46271 19.2231 1.45899 19.2057C1.45527 19.1884 1.472 19.1471 1.5092 19.082L1.57614 18.9648L1.65424 18.8542L1.7435 18.737C1.79557 18.6675 1.91087 18.5178 2.08939 18.2878C2.26791 18.0577 2.39622 17.8928 2.47432 17.793C2.55242 17.6931 2.66772 17.5217 2.82021 17.2786C2.97269 17.0356 3.09356 16.8142 3.18282 16.6146C3.27208 16.4149 3.3725 16.1589 3.48408 15.8464C3.59565 15.5339 3.69235 15.204 3.77417 14.8568C2.60635 14.0842 1.68586 13.1293 1.01269 11.9922C0.339515 10.855 0.00292969 9.63542 0.00292969 8.33333C0.00292969 6.82292 0.449231 5.42752 1.34183 4.14714C2.23444 2.86675 3.44689 1.85547 4.97919 1.11328C6.51149 0.371094 8.18512 0 10.0001 0C11.815 0 13.4887 0.371094 15.021 1.11328C16.5533 1.85547 17.7657 2.86675 18.6583 4.14714C19.5509 5.42752 19.9972 6.82292 19.9972 8.33333Z" fill="#A0A0A0"/>
</g>
<defs>
<clipPath id="clip0_1220_190">
<rect width="20" height="20" fill="white"/>
</clipPath>
</defs>
</svg>
