<svg width="25" height="25" viewBox="0 0 25 25" fill="none" xmlns="http://www.w3.org/2000/svg">
<g clip-path="url(#clip0_1220_192)">
<path d="M19.375 6.89575C22.4792 6.89575 25 9.37492 25 12.4999C25 15.5833 22.4792 18.0937 19.375 18.0937C17.8646 18.0937 16.4583 17.5103 15.3958 16.4583L12.5 13.8958L9.55208 16.5103C8.54167 17.5208 7.125 18.1041 5.625 18.1041C2.52083 18.1041 0 15.5833 0 12.4999C0 9.41659 2.52083 6.89575 5.625 6.89575C7.125 6.89575 8.54167 7.47909 9.60417 8.54159L12.5 11.1041L15.4479 8.4895C16.4583 7.47909 17.875 6.89575 19.375 6.89575ZM8.125 14.9895L10.9375 12.4999L8.16667 10.052C7.45833 9.34367 6.57292 8.97909 5.625 8.97909C3.67708 8.97909 2.08333 10.552 2.08333 12.4999C2.08333 14.4478 3.67708 16.0208 5.625 16.0208C6.57292 16.0208 7.45833 15.6562 8.125 14.9895ZM16.875 10.0103L14.0625 12.4999L16.8333 14.9478C17.5417 15.6562 18.4375 16.0208 19.375 16.0208C21.3229 16.0208 22.9167 14.4478 22.9167 12.4999C22.9167 10.552 21.3229 8.97909 19.375 8.97909C18.4271 8.97909 17.5417 9.34367 16.875 10.0103Z" fill="#A0A0A0"/>
</g>
<defs>
<clipPath id="clip0_1220_192">
<rect width="25" height="25" fill="white"/>
</clipPath>
</defs>
</svg>
