<svg width="25" height="25" viewBox="0 0 25 25" fill="none" xmlns="http://www.w3.org/2000/svg">
<path d="M15.1499 6.85005L12.4999 4.20005L9.8499 6.85005L9.1499 6.15005L12.4999 2.80005L15.8499 6.15005L15.1499 6.85005Z" fill="#A0A0A0"/>
<path d="M12 3.5H13V14H12V3.5Z" fill="#A0A0A0"/>
<path d="M17.5 20H7.5C6.65 20 6 19.35 6 18.5V9.5C6 8.65 6.65 8 7.5 8H11V9H7.5C7.2 9 7 9.2 7 9.5V18.5C7 18.8 7.2 19 7.5 19H17.5C17.8 19 18 18.8 18 18.5V9.5C18 9.2 17.8 9 17.5 9H14V8H17.5C18.35 8 19 8.65 19 9.5V18.5C19 19.35 18.35 20 17.5 20Z" fill="#A0A0A0"/>
</svg>
