<svg width="20" height="20" viewBox="0 0 20 20" fill="none" xmlns="http://www.w3.org/2000/svg">
<path d="M10 18.75C7.67936 18.75 5.45376 17.8281 3.81282 16.1872C2.17187 14.5462 1.25 12.3206 1.25 10C1.25 7.67936 2.17187 5.45376 3.81282 3.81282C5.45376 2.17187 7.67936 1.25 10 1.25C12.3206 1.25 14.5462 2.17187 16.1872 3.81282C17.8281 5.45376 18.75 7.67936 18.75 10C18.75 12.3206 17.8281 14.5462 16.1872 16.1872C14.5462 17.8281 12.3206 18.75 10 18.75ZM10 20C12.6522 20 15.1957 18.9464 17.0711 17.0711C18.9464 15.1957 20 12.6522 20 10C20 7.34784 18.9464 4.8043 17.0711 2.92893C15.1957 1.05357 12.6522 0 10 0C7.34784 0 4.8043 1.05357 2.92893 2.92893C1.05357 4.8043 0 7.34784 0 10C0 12.6522 1.05357 15.1957 2.92893 17.0711C4.8043 18.9464 7.34784 20 10 20Z" fill="#8A8A8A"/>
<path d="M5.35618 11.9588C5.49973 11.8759 5.67032 11.8534 5.83043 11.8963C5.99054 11.9392 6.12705 12.044 6.20993 12.1875C6.59382 12.8529 7.14625 13.4055 7.81159 13.7895C8.47694 14.1735 9.23172 14.3755 9.99993 14.375C10.7682 14.3755 11.5229 14.1735 12.1883 13.7895C12.8536 13.4055 13.406 12.8529 13.7899 12.1875C13.8307 12.1158 13.8852 12.053 13.9503 12.0025C14.0155 11.952 14.09 11.9148 14.1695 11.8932C14.249 11.8716 14.3321 11.866 14.4138 11.8766C14.4956 11.8872 14.5744 11.9139 14.6458 11.9551C14.7171 11.9964 14.7797 12.0513 14.8297 12.1168C14.8798 12.1822 14.9164 12.257 14.9375 12.3367C14.9586 12.4163 14.9637 12.4994 14.9525 12.5811C14.9413 12.6627 14.9141 12.7414 14.8724 12.8125C14.3788 13.6679 13.6686 14.3783 12.8133 14.872C11.9579 15.3657 10.9876 15.6254 9.99993 15.625C9.0123 15.6254 8.04198 15.3657 7.18661 14.872C6.33125 14.3783 5.62103 13.6679 5.12743 12.8125C5.04456 12.669 5.0221 12.4984 5.065 12.3383C5.1079 12.1781 5.21264 12.0416 5.35618 11.9588ZM8.74993 8.125C8.74993 9.16 8.18993 10 7.49993 10C6.80993 10 6.24993 9.16 6.24993 8.125C6.24993 7.09 6.80993 6.25 7.49993 6.25C8.18993 6.25 8.74993 7.09 8.74993 8.125ZM13.7499 8.125C13.7499 9.16 13.1899 10 12.4999 10C11.8099 10 11.2499 9.16 11.2499 8.125C11.2499 7.09 11.8099 6.25 12.4999 6.25C13.1899 6.25 13.7499 7.09 13.7499 8.125Z" fill="#8A8A8A"/>
</svg>
