<svg width="20" height="20" viewBox="0 0 20 20" fill="none" xmlns="http://www.w3.org/2000/svg">
<path d="M17.7778 2.22217H2.2222C1.92751 2.22217 1.64489 2.33923 1.43652 2.5476C1.22815 2.75598 1.11108 3.03859 1.11108 3.33328V16.6666C1.11108 16.9613 1.22815 17.2439 1.43652 17.4523C1.64489 17.6607 1.92751 17.7777 2.2222 17.7777H17.7778C18.0724 17.7777 18.3551 17.6607 18.5634 17.4523C18.7718 17.2439 18.8889 16.9613 18.8889 16.6666V3.33328C18.8889 3.03859 18.7718 2.75598 18.5634 2.5476C18.3551 2.33923 18.0724 2.22217 17.7778 2.22217ZM2.2222 16.6666V3.33328H17.7778V16.6666H2.2222Z" fill="#8A8A8A"/>
<path d="M4.95549 7.77767C5.28512 7.77767 5.60735 7.67992 5.88144 7.49679C6.15552 7.31365 6.36914 7.05335 6.49528 6.74881C6.62143 6.44427 6.65444 6.10915 6.59013 5.78585C6.52582 5.46255 6.36708 5.16558 6.134 4.93249C5.90091 4.6994 5.60394 4.54067 5.28064 4.47636C4.95733 4.41205 4.62222 4.44506 4.31768 4.5712C4.01314 4.69735 3.75284 4.91097 3.5697 5.18505C3.38657 5.45914 3.28882 5.78137 3.28882 6.111C3.28882 6.55303 3.46441 6.97695 3.77697 7.28952C4.08953 7.60208 4.51346 7.77767 4.95549 7.77767ZM4.95549 5.22211C5.13152 5.22101 5.30392 5.27221 5.45083 5.36921C5.59774 5.46621 5.71253 5.60465 5.78066 5.76697C5.84879 5.9293 5.86719 6.10819 5.83352 6.28099C5.79985 6.45378 5.71564 6.61268 5.59155 6.73755C5.46746 6.86242 5.30909 6.94763 5.13651 6.98238C4.96393 7.01713 4.78492 6.99986 4.62217 6.93275C4.45943 6.86564 4.32027 6.75171 4.22235 6.60542C4.12443 6.45912 4.07216 6.28705 4.07215 6.111C4.07361 5.87718 4.16714 5.65334 4.33248 5.488C4.49783 5.32266 4.72166 5.22913 4.95549 5.22767V5.22211Z" fill="#8A8A8A"/>
<path d="M12.6555 8.53899L9.65548 11.539L7.43326 9.31677C7.32917 9.2133 7.18837 9.15522 7.0416 9.15522C6.89483 9.15522 6.75402 9.2133 6.64993 9.31677L3.28882 12.7223V14.2945L7.06104 10.5223L8.88882 12.3223L6.80549 14.4057H8.33326L13.0277 9.71121L16.6666 13.3334V11.7668L13.4388 8.53899C13.3347 8.43552 13.1939 8.37744 13.0472 8.37744C12.9004 8.37744 12.7596 8.43552 12.6555 8.53899Z" fill="#8A8A8A"/>
</svg>
