<svg width="30" height="30" viewBox="0 0 30 30" fill="none" xmlns="http://www.w3.org/2000/svg">
<path d="M25.3086 1.49056L25.588 1.21118C25.7983 1.00102 26.0479 0.834344 26.3226 0.720655C26.5973 0.606967 26.8917 0.548497 27.189 0.548584C27.4863 0.548671 27.7807 0.607313 28.0553 0.721163C28.3299 0.835012 28.5794 1.00184 28.7896 1.21212C28.9997 1.4224 29.1664 1.67201 29.2801 1.94671C29.3938 2.2214 29.4523 2.5158 29.4522 2.81309C29.4521 3.11039 29.3935 3.40475 29.2796 3.67938C29.1658 3.95401 28.9989 4.20352 28.7886 4.41368L28.5093 4.69118C28.9872 5.22717 29.242 5.92567 29.2214 6.64348C29.2008 7.3613 28.9065 8.04406 28.3986 8.55181L9.10115 27.8512C8.98051 27.9712 8.82949 28.0561 8.66427 28.0968L1.16427 29.9718C1.00732 30.0109 0.842929 30.0087 0.687073 29.9655C0.531218 29.9222 0.389202 29.8394 0.274832 29.725C0.160461 29.6106 0.0776257 29.4686 0.034378 29.3128C-0.00886962 29.1569 -0.0110585 28.9925 0.0280242 28.8356L1.90302 21.3356C1.94405 21.171 2.02894 21.0207 2.14865 20.9006L20.2274 2.82181C20.0466 2.69455 19.8266 2.63529 19.6064 2.65451C19.3861 2.67372 19.1797 2.77017 19.0236 2.92681L12.8511 9.10118C12.764 9.18835 12.6605 9.25749 12.5466 9.30466C12.4327 9.35184 12.3107 9.37612 12.1874 9.37612C12.0641 9.37612 11.9421 9.35184 11.8282 9.30466C11.7143 9.25749 11.6108 9.18835 11.5236 9.10118C11.4365 9.01402 11.3673 8.91054 11.3202 8.79665C11.273 8.68276 11.2487 8.5607 11.2487 8.43743C11.2487 8.31416 11.273 8.1921 11.3202 8.07821C11.3673 7.96433 11.4365 7.86085 11.5236 7.77368L17.6999 1.60118C18.208 1.09308 18.8913 0.79872 19.6095 0.778497C20.3278 0.758274 21.0265 1.01373 21.5624 1.49243C22.0776 1.032 22.7442 0.777328 23.4352 0.776982C24.1261 0.776636 24.793 1.03064 25.3086 1.49056ZM24.1011 2.92681C23.9253 2.75105 23.6869 2.65232 23.4383 2.65232C23.1897 2.65232 22.9513 2.75105 22.7755 2.92681L3.65615 22.0424L2.22365 27.7743L7.95552 26.3418L27.0749 7.22618C27.1622 7.13909 27.2315 7.03564 27.2787 6.92174C27.326 6.80785 27.3503 6.68574 27.3503 6.56243C27.3503 6.43912 27.326 6.31701 27.2787 6.20312C27.2315 6.08922 27.1622 5.98577 27.0749 5.89868L24.103 2.92681H24.1011Z" fill="white"/>
</svg>
