<svg xmlns="http://www.w3.org/2000/svg" xmlns:xlink="http://www.w3.org/1999/xlink" viewBox="0 0 61.04 61.04"><defs><style>.cls-1{fill:url(#linear-gradient);}.cls-2{fill:#fff;}</style><linearGradient id="linear-gradient" x1="-45.7" y1="-54.09" x2="120.21" y2="130.08" gradientUnits="userSpaceOnUse"><stop offset="0" stop-color="#376fa4"/><stop offset="1" stop-color="#133c55"/></linearGradient></defs><title>Asset 4</title><g id="Layer_2" data-name="Layer 2"><g id="Layer_1-2" data-name="Layer 1"><rect class="cls-1" width="61.04" height="61.04" rx="24.49"/><path class="cls-2" d="M33.65,48H27A13.49,13.49,0,0,1,13.5,34.56V17.2a2,2,0,0,1,3.36-1.39l4.54,4.57s.1.07.13.05l12.89-.14A13.49,13.49,0,0,1,47.91,33.77,14.28,14.28,0,0,1,33.65,48ZM16.5,19.7V34.56A10.49,10.49,0,0,0,27,45h6.68A11.27,11.27,0,0,0,44.91,33.77,10.49,10.49,0,0,0,34.44,23.29l-12.88.14a3.26,3.26,0,0,1-2.29-.94Z"/><path class="cls-2" d="M30.71,39.94a6.07,6.07,0,0,1-6.07-6.07,1.5,1.5,0,0,1,3,0,3.07,3.07,0,1,0,6.13,0,1.5,1.5,0,0,1,3,0A6.07,6.07,0,0,1,30.71,39.94Z"/></g></g></svg>