<svg xmlns="http://www.w3.org/2000/svg" xmlns:xlink="http://www.w3.org/1999/xlink" viewBox="0 0 110.93 89.02"><defs><style>.cls-1{fill:url(#linear-gradient);}.cls-2{fill:#fff;}.cls-3{fill:url(#linear-gradient-2);}.cls-4{fill:url(#linear-gradient-3);}.cls-5{fill:url(#linear-gradient-4);}.cls-6{fill:url(#linear-gradient-5);}.cls-7{fill:url(#linear-gradient-6);}.cls-8{fill:url(#linear-gradient-7);}.cls-9{fill:url(#linear-gradient-8);}.cls-10{fill:url(#linear-gradient-9);}.cls-11{fill:url(#linear-gradient-10);}.cls-12{fill:url(#linear-gradient-11);}.cls-13{fill:url(#linear-gradient-12);}</style><linearGradient id="linear-gradient" x1="-20.75" y1="-54.09" x2="145.16" y2="130.08" gradientUnits="userSpaceOnUse"><stop offset="0" stop-color="#376fa4"/><stop offset="1" stop-color="#133c55"/></linearGradient><linearGradient id="linear-gradient-2" x1="47.05" y1="21.66" x2="92.25" y2="90.92" xlink:href="#linear-gradient"/><linearGradient id="linear-gradient-3" x1="123.58" y1="83.58" x2="-59.03" y2="71.85" xlink:href="#linear-gradient"/><linearGradient id="linear-gradient-4" x1="123.53" y1="84.43" x2="-59.08" y2="72.69" xlink:href="#linear-gradient"/><linearGradient id="linear-gradient-5" x1="123.58" y1="83.7" x2="-59.03" y2="71.96" xlink:href="#linear-gradient"/><linearGradient id="linear-gradient-6" x1="123.45" y1="85.68" x2="-59.16" y2="73.94" xlink:href="#linear-gradient"/><linearGradient id="linear-gradient-7" x1="123.68" y1="82.14" x2="-58.93" y2="70.4" xlink:href="#linear-gradient"/><linearGradient id="linear-gradient-8" x1="123.71" y1="81.62" x2="-58.9" y2="69.88" xlink:href="#linear-gradient"/><linearGradient id="linear-gradient-9" x1="123.76" y1="80.87" x2="-58.85" y2="69.13" xlink:href="#linear-gradient"/><linearGradient id="linear-gradient-10" x1="123.91" y1="78.53" x2="-58.7" y2="66.79" xlink:href="#linear-gradient"/><linearGradient id="linear-gradient-11" x1="123.86" y1="79.35" x2="-58.75" y2="67.61" xlink:href="#linear-gradient"/><linearGradient id="linear-gradient-12" x1="123.99" y1="77.27" x2="-58.62" y2="65.53" xlink:href="#linear-gradient"/></defs><title>Asset 2</title><g id="Layer_2" data-name="Layer 2"><g id="Layer_1-2" data-name="Layer 1"><rect class="cls-1" x="24.95" width="61.04" height="61.04" rx="24.49"/><path class="cls-2" d="M71.17,33.77h0A12.76,12.76,0,0,1,58.41,46.53H51.73a12,12,0,0,1-12-12V17.2a.47.47,0,0,1,.8-.33l4.54,4.56a1.66,1.66,0,0,0,1.21.5l12.89-.14A12,12,0,0,1,71.17,33.77Z"/><path class="cls-3" d="M55.47,39.94a6.07,6.07,0,0,1-6.07-6.07,1.5,1.5,0,0,1,3,0,3.07,3.07,0,1,0,6.13,0,1.5,1.5,0,0,1,3,0A6.07,6.07,0,0,1,55.47,39.94Z"/><path class="cls-4" d="M5,72.16a4.52,4.52,0,0,1,2.15-.5,4.79,4.79,0,0,1,2.6.73,5,5,0,0,1,1.85,2.09,7,7,0,0,1,.68,3.15,7.06,7.06,0,0,1-.68,3.16,5.07,5.07,0,0,1-1.85,2.1,4.72,4.72,0,0,1-2.6.74A4.43,4.43,0,0,1,5,83.14a6.61,6.61,0,0,1-1.44-1.3,1.63,1.63,0,0,1-1.63,1.63H1.63A1.63,1.63,0,0,1,0,81.84v-12A1.78,1.78,0,0,1,1.78,68h0a1.79,1.79,0,0,1,1.79,1.78v3.67A3.62,3.62,0,0,1,5,72.16Zm2.91,3.37a2.46,2.46,0,0,0-1.83-.76,2.4,2.4,0,0,0-1.8.77,2.91,2.91,0,0,0-.74,2.11,2.87,2.87,0,0,0,.74,2.1,2.38,2.38,0,0,0,1.8.78,2.41,2.41,0,0,0,1.82-.79,3.35,3.35,0,0,0,0-4.21Z"/><path class="cls-5" d="M23.72,78.5H15.65a2.38,2.38,0,0,0,.69,1.66,2.17,2.17,0,0,0,1.52.58,1.93,1.93,0,0,0,1.54-.64,1.33,1.33,0,0,1,1-.49h1a1.28,1.28,0,0,1,1,2h0a5.17,5.17,0,0,1-1.91,1.44,6.12,6.12,0,0,1-2.57.52,6.19,6.19,0,0,1-3-.73,5.17,5.17,0,0,1-2.09-2.08,6.46,6.46,0,0,1-.75-3.17,6.54,6.54,0,0,1,.74-3.17,5,5,0,0,1,2.08-2.09A6.24,6.24,0,0,1,18,71.66a6.28,6.28,0,0,1,3,.71,5.11,5.11,0,0,1,2.05,2,6.2,6.2,0,0,1,.74,3.07A9.47,9.47,0,0,1,23.72,78.5Zm-3.59-2a1.83,1.83,0,0,0-.63-1.46,2.28,2.28,0,0,0-1.56-.54,2.24,2.24,0,0,0-1.51.52,2.28,2.28,0,0,0-.76,1.48Z"/><path class="cls-6" d="M35.21,78.5H27.14a2.39,2.39,0,0,0,.7,1.66,2.14,2.14,0,0,0,1.51.58,1.92,1.92,0,0,0,1.54-.64,1.35,1.35,0,0,1,1-.49h1a1.28,1.28,0,0,1,1,2h0A5.09,5.09,0,0,1,32,83.11a6.07,6.07,0,0,1-2.56.52,6.2,6.2,0,0,1-3.05-.73,5.17,5.17,0,0,1-2.09-2.08,6.46,6.46,0,0,1-.75-3.17,6.54,6.54,0,0,1,.74-3.17,5.17,5.17,0,0,1,2.08-2.09,6.76,6.76,0,0,1,6.07,0,5,5,0,0,1,2.05,2,6.09,6.09,0,0,1,.74,3.07A9.47,9.47,0,0,1,35.21,78.5Zm-3.59-2A1.82,1.82,0,0,0,31,75.06a2.32,2.32,0,0,0-1.57-.54,2.25,2.25,0,0,0-1.51.52,2.33,2.33,0,0,0-.76,1.48Z"/><path class="cls-7" d="M40.8,72.16a4.46,4.46,0,0,1,2.15-.5,4.8,4.8,0,0,1,2.61.73,5,5,0,0,1,1.84,2.09,6.83,6.83,0,0,1,.68,3.15,6.93,6.93,0,0,1-.68,3.16,5,5,0,0,1-1.84,2.1,4.73,4.73,0,0,1-2.61.74,4.37,4.37,0,0,1-2.14-.5,3.88,3.88,0,0,1-1.45-1.29v5.39A1.79,1.79,0,0,1,37.58,89h0a1.78,1.78,0,0,1-1.78-1.79V73.48a1.64,1.64,0,0,1,1.64-1.65h.28a1.64,1.64,0,0,1,1.64,1.65h0A3.91,3.91,0,0,1,40.8,72.16Zm2.91,3.37a2.54,2.54,0,0,0-3.63,0,3,3,0,0,0-.74,2.11,2.91,2.91,0,0,0,.74,2.1,2.41,2.41,0,0,0,1.81.78,2.39,2.39,0,0,0,1.81-.79,2.91,2.91,0,0,0,.75-2.11A2.87,2.87,0,0,0,43.71,75.53Z"/><path class="cls-8" d="M59.51,78.5H51.44a2.43,2.43,0,0,0,.7,1.66,2.14,2.14,0,0,0,1.51.58,2,2,0,0,0,1.55-.64,1.31,1.31,0,0,1,1-.49h1a1.28,1.28,0,0,1,1,2h0a5.09,5.09,0,0,1-1.91,1.44,6.07,6.07,0,0,1-2.56.52,6.23,6.23,0,0,1-3.05-.73,5.14,5.14,0,0,1-2.08-2.08,6.36,6.36,0,0,1-.76-3.17,6.54,6.54,0,0,1,.74-3.17,5.17,5.17,0,0,1,2.08-2.09,6.76,6.76,0,0,1,6.07,0,5.13,5.13,0,0,1,2.06,2,6.2,6.2,0,0,1,.74,3.07A7.57,7.57,0,0,1,59.51,78.5Zm-3.58-2a1.83,1.83,0,0,0-.63-1.46,2.31,2.31,0,0,0-1.56-.54,2.26,2.26,0,0,0-1.52.52,2.33,2.33,0,0,0-.76,1.48Z"/><path class="cls-9" d="M64.68,72.7a2,2,0,0,1,1.86-.43,1.17,1.17,0,0,1,.88,1c0,.4.2,1.38-.39,1.88a2,2,0,0,1-.73.29,5.43,5.43,0,0,0-2,.64,2.59,2.59,0,0,0-.67,2v3.61a1.78,1.78,0,0,1-1.78,1.79h0a1.79,1.79,0,0,1-1.78-1.79V73.61a1.78,1.78,0,0,1,1.78-1.78h0a1.78,1.78,0,0,1,1.78,1.78v.16A6.38,6.38,0,0,1,64.68,72.7Z"/><path class="cls-10" d="M68.59,74.48a5.08,5.08,0,0,1,2.07-2.09,6.12,6.12,0,0,1,3-.73,5.74,5.74,0,0,1,3.66,1.15,5.47,5.47,0,0,1,.51.45A1.65,1.65,0,0,1,76.64,76h-.31a1.52,1.52,0,0,1-1.19-.65,1.78,1.78,0,0,0-1.51-.68,1.88,1.88,0,0,0-1.57.76,4.39,4.39,0,0,0,0,4.36,1.88,1.88,0,0,0,1.57.76,1.81,1.81,0,0,0,1.51-.68,1.51,1.51,0,0,1,1.19-.66h.31A1.64,1.64,0,0,1,77.85,82a5.57,5.57,0,0,1-.51.46,5.7,5.7,0,0,1-3.65,1.16,6.12,6.12,0,0,1-3-.73,5.06,5.06,0,0,1-2.07-2.08,7.16,7.16,0,0,1,0-6.34Z"/><path class="cls-11" d="M89.3,73a5.16,5.16,0,0,1,1.21,3.64v5a1.78,1.78,0,0,1-1.77,1.78h0A1.78,1.78,0,0,1,87,81.69V77.15a2.58,2.58,0,0,0-.61-1.82,2.12,2.12,0,0,0-1.63-.64,2.1,2.1,0,0,0-1.62.64,2.54,2.54,0,0,0-.61,1.82v4.53a1.79,1.79,0,0,1-1.78,1.79h0a1.79,1.79,0,0,1-1.79-1.79V69.81A1.79,1.79,0,0,1,80.72,68h0a1.78,1.78,0,0,1,1.78,1.78v3.58A3.91,3.91,0,0,1,84,72.16a4.84,4.84,0,0,1,2.11-.46A4.13,4.13,0,0,1,89.3,73Z"/><path class="cls-12" d="M91.61,74.48a5,5,0,0,1,1.84-2.09,4.8,4.8,0,0,1,2.61-.73,4.53,4.53,0,0,1,2.16.5,3.73,3.73,0,0,1,1.43,1.32h0a1.65,1.65,0,0,1,1.65-1.65h.27a1.65,1.65,0,0,1,1.65,1.65v8.34a1.65,1.65,0,0,1-1.65,1.65h-.27a1.65,1.65,0,0,1-1.65-1.65h0a3.84,3.84,0,0,1-1.45,1.31,4.42,4.42,0,0,1-2.16.5,4.68,4.68,0,0,1-2.59-.74,5,5,0,0,1-1.84-2.1,6.93,6.93,0,0,1-.68-3.16A6.83,6.83,0,0,1,91.61,74.48Zm7.3,1.06a2.44,2.44,0,0,0-1.81-.77,2.4,2.4,0,0,0-1.8.76,2.91,2.91,0,0,0-.74,2.1,3,3,0,0,0,.74,2.11,2.35,2.35,0,0,0,1.8.79,2.41,2.41,0,0,0,1.81-.78,2.91,2.91,0,0,0,.74-2.1A3,3,0,0,0,98.91,75.54Z"/><path class="cls-13" d="M110.93,81.72v.48a1.27,1.27,0,0,1-1.27,1.27h-.54a4.47,4.47,0,0,1-3-1,3.94,3.94,0,0,1-1.08-3.1V74.79h0a1.42,1.42,0,0,1-1.42-1.42v-.12A1.42,1.42,0,0,1,105,71.83h0V70.77A1.78,1.78,0,0,1,106.79,69h0a1.79,1.79,0,0,1,1.79,1.78v1.06h.85a1.48,1.48,0,0,1,1.48,1.48h0a1.48,1.48,0,0,1-1.48,1.48h-.85v4.67a1,1,0,0,0,.25.75,1.16,1.16,0,0,0,.83.23h0A1.27,1.27,0,0,1,110.93,81.72Z"/></g></g></svg>